<svg width="126" height="31" viewBox="0 0 126 31" fill="none" xmlns="http://www.w3.org/2000/svg">
<path d="M0 15.5C0 6.93959 6.93959 0 15.5 0H95C112.121 0 126 13.8792 126 31H15.5C6.93959 31 0 24.0604 0 15.5Z" fill="white" fill-opacity="0.7"/>
<path d="M35.5483 21H33.2812L36.2259 12.2727H39.0341L41.9787 21H39.7116L37.6619 14.4716H37.5938L35.5483 21ZM35.2457 17.5653H39.9844V19.1676H35.2457V17.5653ZM46.7583 21V12.2727H48.8677V19.2869H52.4984V21H46.7583ZM57.4304 21V12.2727H63.5156V13.9858H59.5397V15.7756H63.2045V17.4929H59.5397V19.2869H63.5156V21H57.4304ZM68.6766 21V12.2727H72.2817C72.9351 12.2727 73.499 12.3906 73.9735 12.6264C74.4508 12.8594 74.8187 13.1946 75.0772 13.6321C75.3357 14.0668 75.465 14.5824 75.465 15.179C75.465 15.7841 75.3329 16.2983 75.0687 16.7216C74.8044 17.142 74.4294 17.4631 73.9437 17.6847C73.4579 17.9034 72.8826 18.0128 72.2178 18.0128H69.938V16.3509H71.8258C72.1439 16.3509 72.4096 16.3097 72.6226 16.2273C72.8385 16.142 73.0019 16.0142 73.1127 15.8438C73.2235 15.6705 73.2789 15.4489 73.2789 15.179C73.2789 14.9091 73.2235 14.6861 73.1127 14.5099C73.0019 14.331 72.8385 14.1974 72.6226 14.1094C72.4067 14.0185 72.1411 13.973 71.8258 13.973H70.786V21H68.6766ZM73.59 17.0114L75.7633 21H73.4621L71.3314 17.0114H73.59ZM80.1764 13.9858V12.2727H87.5528V13.9858H84.9065V21H82.827V13.9858H80.1764Z" fill="#6157E0"/>
</svg>
