<svg width="50" height="51" viewBox="0 0 50 51" fill="none" xmlns="http://www.w3.org/2000/svg">
<g clip-path="url(#clip0_7_1485)">
<path d="M25 50.2507C38.8071 50.2507 50 39.0578 50 25.2507C50 11.4436 38.8071 0.250671 25 0.250671C11.1929 0.250671 0 11.4436 0 25.2507C0 39.0578 11.1929 50.2507 25 50.2507Z" fill="#4661EE"/>
<path d="M25.9244 37.0154C29.4853 37.0154 31.8487 35.882 33.9286 34.056C34.2752 33.741 34.5588 33.2688 34.5588 32.6706C34.5588 31.6946 33.708 30.8761 32.7311 30.8761C32.2584 30.8761 31.8487 31.065 31.5651 31.3168C29.958 32.6706 28.3823 33.4263 26.0504 33.4263C21.8277 33.4263 18.771 29.9316 18.771 25.6183V25.5554C18.771 21.2421 21.8593 17.7789 26.0504 17.7789C28.1618 17.7789 29.8004 18.5345 31.313 19.7624C31.5651 19.9513 31.9432 20.1401 32.479 20.1401C33.5504 20.1401 34.4013 19.3216 34.4013 18.2512C34.4013 17.5585 34.0546 17.0233 33.6449 16.7085C31.7227 15.2288 29.4853 14.2213 26.0819 14.2213C19.4012 14.2213 14.7059 19.3531 14.7059 25.6183V25.6813C14.7059 32.0095 19.4958 37.0154 25.9244 37.0154Z" fill="white"/>
</g>
<defs>
<clipPath id="clip0_7_1485">
<rect width="50" height="50" fill="white" transform="translate(0 0.250671)"/>
</clipPath>
</defs>
</svg>
