<svg width="50" height="51" viewBox="0 0 50 51" fill="none" xmlns="http://www.w3.org/2000/svg">
<g clip-path="url(#clip0_7_1509)">
<path d="M25 50.1926C38.8071 50.1926 50 38.9997 50 25.1926C50 11.3855 38.8071 0.192596 25 0.192596C11.1929 0.192596 3.05176e-05 11.3855 3.05176e-05 25.1926C3.05176e-05 38.9997 11.1929 50.1926 25 50.1926Z" fill="#3C5A9A"/>
<path d="M33.1289 7.86624H27.5908C24.3043 7.86624 20.6488 9.2485 20.6488 14.0124C20.6649 15.6724 20.6488 17.2621 20.6488 19.0512H16.8468V25.1014H20.7665V42.5188H27.9691V24.9864H32.7231L33.1532 19.0342H27.845C27.845 19.0342 27.8569 16.3864 27.845 15.6175C27.845 13.7349 29.8039 13.8427 29.9217 13.8427C30.8539 13.8427 32.6664 13.8454 33.1317 13.8427V7.86624H33.1289Z" fill="white"/>
</g>
<defs>
<clipPath id="clip0_7_1509">
<rect width="50" height="50" fill="white" transform="translate(0 0.192566)"/>
</clipPath>
</defs>
</svg>
