<svg width="250" height="78" viewBox="0 0 250 78" fill="none" xmlns="http://www.w3.org/2000/svg">
<g clip-path="url(#clip0_7_1508)">
<path d="M45 66.1926C58.8071 66.1926 70 54.9997 70 41.1926C70 27.3855 58.8071 16.1926 45 16.1926C31.1929 16.1926 20 27.3855 20 41.1926C20 54.9997 31.1929 66.1926 45 66.1926Z" fill="#3C5A9A"/>
<path d="M53.1289 23.8662H47.5908C44.3043 23.8662 40.6488 25.2485 40.6488 30.0124C40.6649 31.6724 40.6488 33.2621 40.6488 35.0512H36.8468V41.1014H40.7665V58.5188H47.9691V40.9864H52.7231L53.1532 35.0342H47.845C47.845 35.0342 47.8569 32.3864 47.845 31.6175C47.845 29.7349 49.8039 29.8427 49.9217 29.8427C50.8539 29.8427 52.6664 29.8454 53.1317 29.8427V23.8662H53.1289Z" fill="white"/>
</g>
<g clip-path="url(#clip1_7_1508)">
<path d="M111.761 34.1998C110.593 34.1998 110.255 34.7177 110.255 35.8601V37.7551H113.37L113.058 40.8168H110.256V50.1081H106.518V40.8168H104V37.7551H106.518V35.9121C106.518 32.8239 107.763 31.1926 111.238 31.1926C111.966 31.1909 112.693 31.2341 113.416 31.3221V34.2034L111.761 34.1998Z" fill="#1877F2"/>
<path d="M113.629 43.542C113.629 40.0907 115.264 37.4914 118.69 37.4914C120.558 37.4914 121.7 38.4522 122.245 39.6454V37.7552H125.826V50.1081H122.245V48.2397C121.726 49.4342 120.558 50.3683 118.69 50.3683C115.264 50.3683 113.629 47.7726 113.629 44.3177V43.542ZM117.366 44.3734C117.366 46.2152 118.04 47.4349 119.779 47.4349C121.311 47.4349 122.089 46.3193 122.089 44.5549V43.3145C122.089 41.5502 121.311 40.4344 119.779 40.4344C118.04 40.4344 117.366 41.6542 117.366 43.496V44.3734Z" fill="#1877F2"/>
<path d="M133.612 37.4949C135.064 37.4949 136.44 37.8071 137.193 38.325L136.363 40.9728C135.584 40.602 134.733 40.4069 133.871 40.4016C131.846 40.4016 130.967 41.5694 130.967 43.5685V44.2946C130.967 46.2937 131.849 47.4614 133.871 47.4614C134.733 47.456 135.584 47.2611 136.363 46.8903L137.193 49.5368C136.44 50.056 135.065 50.3683 133.612 50.3683C129.225 50.3683 127.227 48.006 127.227 44.2171V43.646C127.227 39.857 129.225 37.4949 133.612 37.4949Z" fill="#1877F2"/>
<path d="M137.685 44.4035V43.3144C137.685 39.8111 139.683 37.5057 143.759 37.5057C147.6 37.5057 149.287 39.8413 149.287 43.2672V45.2397H141.421C141.5 46.9266 142.252 47.6792 144.325 47.6792C145.728 47.6792 147.207 47.3937 148.297 46.9266L148.98 49.4861C147.994 50.0064 145.97 50.3948 144.18 50.3948C139.45 50.3935 137.685 48.0338 137.685 44.4035ZM141.422 42.794H145.938V42.483C145.938 41.1337 145.394 40.0627 143.76 40.0627C142.072 40.064 141.422 41.1289 141.422 42.7892V42.794Z" fill="#1877F2"/>
<path d="M163.139 44.3212C163.139 47.7724 161.478 50.3718 158.056 50.3718C156.188 50.3718 154.89 49.4376 154.371 48.2432V50.1116H150.842V31.5519L154.579 31.2131V39.4662C155.124 38.3771 156.318 37.4937 158.057 37.4937C161.483 37.4937 163.14 40.0894 163.14 43.5443L163.139 44.3212ZM159.402 43.4644C159.402 41.7255 158.728 40.4282 156.937 40.4282C155.405 40.4282 154.574 41.5173 154.574 43.2829V44.5802C154.574 46.3445 155.405 47.4348 156.937 47.4348C158.728 47.4348 159.402 46.1376 159.402 44.3986V43.4644Z" fill="#1877F2"/>
<path d="M164.389 44.2425V43.6205C164.389 40.064 166.413 37.4949 170.54 37.4949C174.666 37.4949 176.692 40.064 176.692 43.6205V44.2425C176.692 47.798 174.668 50.3683 170.541 50.3683C166.414 50.3683 164.389 47.798 164.389 44.2425ZM172.954 43.3603C172.954 41.7255 172.279 40.4282 170.534 40.4282C168.789 40.4282 168.12 41.7255 168.12 43.3603V44.5027C168.12 46.1376 168.795 47.4348 170.534 47.4348C172.273 47.4348 172.954 46.1376 172.954 44.5027V43.3603Z" fill="#1877F2"/>
<path d="M177.935 44.2425V43.6205C177.935 40.064 179.96 37.4949 184.086 37.4949C188.213 37.4949 190.237 40.064 190.237 43.6205V44.2425C190.237 47.798 188.213 50.3683 184.086 50.3683C179.96 50.3683 177.935 47.798 177.935 44.2425ZM186.5 43.3603C186.5 41.7255 185.825 40.4282 184.086 40.4282C182.347 40.4282 181.673 41.7255 181.673 43.3603V44.5027C181.673 46.1376 182.347 47.4348 184.086 47.4348C185.825 47.4348 186.5 46.1376 186.5 44.5027V43.3603Z" fill="#1877F2"/>
<path d="M195.375 43.6459L199.06 37.7551H203.03L199.164 43.8541L203.187 50.108H199.216L195.375 44.0574V50.108H191.637V31.5519L195.375 31.2131V43.6459Z" fill="#1877F2"/>
</g>
<defs>
<clipPath id="clip0_7_1508">
<rect width="50" height="50" fill="white" transform="translate(20 16.1926)"/>
</clipPath>
<clipPath id="clip1_7_1508">
<rect width="100" height="20.6349" fill="white" transform="translate(104 31.1926)"/>
</clipPath>
</defs>
</svg>
